<svg width="2830" height="397.00000000000006" xmlns="http://www.w3.org/2000/svg">

 <g>
  <title>background</title>
  <rect fill="none" id="canvas_background" height="402" width="582" y="-1" x="-1"/>
 </g>
 <g>
  <title>Layer 1</title>
  <g id="_x23_ff2193ff">
   <path id="svg_1" d="m315.2,0l1.6,0c4.9,1.1 8.6,4.8 11.9,8.4c6.2,7.3 10.2,17 9.4,26.7c-0.3,7.3 -4.5,13.6 -6.5,20.4c-1.9,5.7 -2.2,12 -0.7,17.8c1,3.3 3.5,5.7 5.5,8.4c5.4,6.7 7.8,15.9 5.3,24.2c-2,6.8 -7.1,12.5 -13.6,15.3c-3.8,1.8 -8.1,2.7 -11.5,5.4c-3.6,3 -4.9,7.8 -5.4,12.3c-1,9 0,18.1 0.6,27.1c1.8,26.9 5.3,53.9 3.3,81c-1.2,15.5 -3.8,31.2 -10.8,45.3c28.7,-4.9 57.6,-9.3 86.7,-11.1c2.2,-0.1 4.4,-0.1 6.6,-0.1c0.5,2 0.9,4.1 1.4,6.1c4.3,21.6 9.4,43.2 17.1,63.9c0.9,2.4 1.8,4.9 2.6,7.4c-0.6,0.1 -1.8,0.2 -2.3,0.3c-27.1,3.3 -54.1,6.9 -81.3,9c-24.8,1.9 -50.2,2.7 -74.6,-3.4c-5.1,-1.4 -10.4,-2.9 -14.6,-6.2c-2.1,-1.6 -2.5,-4.4 -3.6,-6.6c-1,-1.6 -2.5,-2.7 -3.8,-4c-22.4,-21.6 -44.1,-43.9 -66.5,-65.5c-14.4,-14.2 -29.4,-27.9 -44,-42c-15.7,-15 -31.8,-29.5 -47.1,-44.9c-9.1,-9 -17.1,-19.2 -24,-30c-6.2,-9.6 -12.3,-19.4 -20.5,-27.5c-4.8,-4.6 -9.7,-9.4 -16.1,-11.9c-7.5,-3 -15.2,-6.4 -20.3,-13l0,-3.4c13.1,-8.5 31.7,-6.9 43.5,3.2c5.2,4.3 7.7,10.8 12.3,15.7c3.1,3.3 6.7,6.2 10.9,8.1c3.5,1.7 7.5,0.8 11.3,0.7c7.9,-0.4 16.3,1.3 22.4,6.6c6,5.5 8.5,14.3 7.1,22.3c-0.6,4.3 -2.2,8.6 -1.5,13c0.8,4.2 4.1,7.3 7.2,9.9c6.6,5.3 14,9.4 21.3,13.5c26.5,14.4 54.1,27.3 77.5,46.6c9.6,8 18.7,16.9 25.7,27.3c3.1,4.4 4.6,9.8 8.3,13.8c1.9,2.2 4.1,4.3 6.2,6.3c6.2,-29.8 12.3,-59.7 18.4,-89.5c5.5,-26.4 10,-52.9 15.3,-79.3c2.6,-13 5.5,-26.1 10.3,-38.6c3.6,-9.7 8.6,-18.8 12.4,-28.4c3.4,-9.1 6.1,-18.7 6.3,-28.5c0.2,-6.5 -2.5,-12.6 -2.4,-19c-0.1,-4.6 0.3,-9.2 2.7,-13.1z" fill="#FFFFFF"/>
  </g>
  <g id="_x23_ffffffff">
   <g id="svg_2">
    <path id="svg_3" d="m744.8,50.1c11.1,-2.1 23.3,-2.1 33.4,3.7c7.2,3.8 12,10.7 17.7,16.3c4.1,4.2 10.2,5.2 15.2,7.9c6.1,3.3 10.6,8.6 14.9,13.9c5.1,6.3 8.6,13.9 9.9,21.9c2.4,14 0.7,28.5 -3.1,42.1c-2,7.3 -4.9,14.3 -7.2,21.5c-1,3.1 -2,6.3 -1.6,9.6c0.5,4.7 2.6,8.9 4.6,13.1c5.2,10.1 10.5,20.2 15.7,30.3c5,9.9 9.7,20.1 11.9,31c2.2,11.1 0.8,22.5 -1.6,33.4c1.1,-11.6 2.5,-23.6 -0.7,-35c-1.6,-6.1 -5.3,-11.5 -10.2,-15.4c0.5,5.2 1.8,10.2 1.7,15.4c-0.1,14.8 -1.7,29.6 -5,44c-0.3,1.5 -0.8,3.1 -0.4,4.7c1.2,6.4 3.5,12.6 3.7,19.2c0.2,5.5 1.3,11.1 0.1,16.6c-0.4,2.4 -2.5,4.3 -4.9,4.6c-5.1,0.6 -10,-1 -14.9,-2.4c-12.4,-3.6 -23.7,-10 -34.5,-16.9c-3.3,7.2 -6.4,14.8 -12.4,20.3c0.4,3.7 0.6,7.5 1.8,11.1c0.4,1.4 1.4,2.8 2.9,3.1c2.4,0.2 4.8,-0.5 7.1,-1c19.1,-5 38.3,-9.6 57.2,-15.4c16.5,-5.4 33,-10.6 49.5,-16c4.7,-1.5 9.3,-3.1 14.1,-3.8c4.7,-0.8 9.4,-0.6 14.1,-0.2c10.3,1 20.6,2 31,2.9c14,0.8 28,1.3 42.1,2.3c7.6,0.4 14.6,3.7 22,5.3c2,0.3 3.6,1.5 5.2,2.8c-0.5,0.3 -1.6,0.9 -2.1,1.2c-3.2,-0.4 -6.4,-1 -9.7,-1c4.5,0.9 9.4,0.9 13.3,3.7c-2.6,2.4 -6.4,2.1 -9.6,2c-8.7,-0.4 -17.3,-2.3 -26,-2.3c-4.2,-0.1 -8.3,-0.4 -12.5,-0.3c12.3,2.5 24.9,3.6 37.3,5.1c3,0.3 5.9,0.9 8.8,1.8c-2,3.4 -6.1,4.4 -9.1,6.5c29.7,0.4 59.3,0 89,0.2c0.9,-3.4 2.3,-7 5.4,-9c3.3,-2.5 7.8,-2.2 11.6,-1.3c18,-56.6 36.1,-113.1 54.1,-169.7c0.7,-2.1 1.6,-4.4 3.6,-5.6c4.3,-3 11.2,-0.9 12.9,4.1c1.3,3.3 -0.4,6.8 -1.4,10c-18.4,57.8 -36.8,115.6 -55.2,173.4c-1,3 -1.8,6.1 -3,9c-1.2,3 -4.2,4.9 -7.2,5.5c-3.1,0.4 -6.3,0.1 -9.4,0.2c-62.3,0 -124.6,0 -187,0c-3.8,0.3 -7.7,-2 -8.7,-5.7c-1,-2.8 0.1,-5.8 1.4,-8.3c-14.6,1.1 -29.4,-0.8 -43.7,2.8c-12.5,3.2 -24.6,7.5 -36.9,11.5c-19.7,6.4 -39.3,12.6 -59,18.9c-3.8,1.2 -7.5,2.5 -11.4,3.3l-25.6,0c-3.6,-5 -5,-11.2 -6.6,-17.1c-1.6,-5.9 -3,-11.9 -4.6,-17.8c-10.5,0.1 -20.8,-2.3 -30.9,-4.8c-6.7,-1.6 -13.1,-4.3 -19.9,-4.9c-14.4,-1.2 -28.7,0.9 -43.1,0.9c-23.7,0.2 -47.5,-1.4 -70.9,-4.8c-10.4,-1.9 -20.7,-4 -31.1,-6c-8.5,-1.6 -17.3,-1.8 -26,-1.9c-4.5,-0.3 -8.4,2.4 -12.5,3.6c-26,8.6 -53,14.3 -80.3,16.7c-0.5,-0.6 -1.4,-1.8 -1.8,-2.4c0.6,-0.1 1.7,-0.2 2.3,-0.3c-0.8,-2.5 -1.7,-4.9 -2.6,-7.4c-7.7,-20.7 -12.8,-42.2 -17.1,-63.9c-0.2,-0.9 -0.5,-2.8 -0.7,-3.7c11.6,-3.3 23.3,-6.3 34.8,-10.1c1.2,-3 2.8,-5.9 4.9,-8.4c6.8,-8.2 14.8,-15.5 23.9,-21.1c11.3,-6.3 24.3,-9.8 37.2,-9.4c8.6,0 17.6,0.4 25.5,4.1c10.5,4.8 19.5,12.3 28.8,19c4.5,3.7 10.1,5.8 15.1,8.8c9.2,5.1 18.7,10.7 29.5,11.7c11.9,1.1 24,0.2 35.7,-2.5c-5.3,-2.4 -10.4,-5.4 -15.2,-8.7c5.2,-0.3 10.5,0.3 15.7,-0.8c4.3,-1.1 7.9,-4 11.4,-6.6c5.1,-4.1 10.4,-8.1 15,-12.9c-4.9,-0.7 -10,-1.7 -14.2,-4.5c-4,3.4 -8.1,6.8 -12.5,9.7c-3.8,2.4 -8.2,4.3 -12.8,3.7c-4.4,-0.6 -8.3,-3.1 -11.8,-5.6c-4.3,-3.2 -8.4,-6.7 -12.3,-10.4c5.2,2.2 10.3,5 16.1,5c6.3,0.3 12.1,-2.8 17,-6.5c9.7,-7.3 17.8,-16.9 22.7,-28c4.2,-9.6 7.9,-19.4 10.6,-29.6c-3.4,0 -6.9,-0.3 -10.3,0.1c-3.4,0.5 -6,3 -8.3,5.3c-6.3,6.6 -11.8,14.2 -18.7,20.2c-6.5,5.4 -14.3,9.7 -22.8,10.8c-4.8,0.6 -10.1,0.2 -14.3,-2.7c-3.2,-2.3 -4,-6.5 -5.1,-10c1.7,2.8 3.5,6.2 7,7c9,3 18.8,-1.9 24,-9.3c5.7,-8 10.1,-16.9 16.7,-24.3c9.6,-10.4 21.3,-18.7 31.9,-28.1c-8.3,2.3 -16.2,5.8 -23,11c-9.6,6.7 -16.2,16.5 -24.2,24.7c0,-3.4 0.4,-7 2.1,-10.1c3.6,-6.8 9.2,-12.2 14,-18.1c-8.4,0.7 -16.9,2.5 -25.4,1.6c-3.1,-0.3 -6.1,-1.4 -8.7,-3c-7.5,-4.7 -13.7,-11 -19.3,-17.7c4.9,4.3 10.2,8.5 16.3,11.1c10.1,3.6 21.8,1 29.8,-6c5.9,-5.2 10.6,-11.7 14.9,-18.2c3.3,-5 5.6,-10.7 10.1,-14.8c6,-5.4 13,-9.6 18.9,-15.2c3.3,-3.1 4.4,-7.7 6.1,-11.8c1.6,-4.1 5.7,-6.5 9.7,-8c6.4,-2.4 13.5,-2 20,-3.9c5.3,-1.5 9.2,-5.7 13.4,-9.1c7.6,-5.9 17.2,-9.2 26.7,-11.5" fill="#FFFFFF"/>
    <path id="svg_4" d="m648.1,240.2c0.7,0.5 1.4,1 2.2,1.5c6,-1.6 12,-3.8 17.1,-7.4c1.3,-1.7 1.7,-3.9 2.4,-5.9c1.4,-4.9 2.7,-9.7 3.5,-14.7c-8.5,8.8 -15.9,18.7 -25.2,26.5" fill="#FFFFFF"/>
    <path id="svg_5" d="m784.8,235.9c-2,4.2 -3.9,8.5 -7.1,11.9c0.7,11.9 3.4,23.5 6.8,34.9c2.1,2.2 4.7,3.8 7,5.7c3.7,2.8 6.9,6.2 10.7,8.9c-1.3,-5.7 -3.5,-11.1 -5.3,-16.6c-4.3,-13.4 -8,-27 -10.8,-40.8c-0.3,-1.3 -0.7,-2.7 -1.3,-4" fill="#FFFFFF"/>
    <path id="svg_6" d="m814.7,241.5c6.3,15.7 13.7,30.9 19.6,46.6c-0.8,-4.7 -1.7,-9.4 -1.7,-14.1c-0.3,-7.3 -0.3,-15.5 -5.3,-21.4c-3.6,-4.3 -8,-7.8 -12.6,-11.1" fill="#FFFFFF"/>
    <path id="svg_7" d="m963.9,356c3.6,1.1 7.3,2.1 11.1,2c6.4,-0.1 12.8,0.2 19.1,-0.4c-10.1,-0.8 -20.1,-2.1 -30.2,-1.6z" fill="#FFFFFF"/>
   </g>
  </g>
  <text stroke="#000" transform="matrix(23.883691787719723,0,0,10.051880339807402,-29183.53069970012,-1639.9868228644677) " xml:space="preserve" text-anchor="start" font-family="Euphoria, sans-serif" font-size="29" id="svg_8" y="200.984434" x="1271.405425" stroke-width="0" fill="#ff7f00">MMD</text>
 </g>
</svg>